<?xml version="1.0" standalone="no"?>
<!DOCTYPE svg PUBLIC "-//W3C//DTD SVG 20010904//EN"
 "http://www.w3.org/TR/2001/REC-SVG-20010904/DTD/svg10.dtd">
<svg version="1.0" xmlns="http://www.w3.org/2000/svg"
 width="400.000000pt" height="400.000000pt" viewBox="0 0 400.000000 400.000000"
 preserveAspectRatio="xMidYMid meet">
<metadata>
Created by potrace 1.14, written by Peter Selinger 2001-2017
</metadata>
<g transform="translate(0.000000,400.000000) scale(0.100000,-0.100000)"
fill="#000000" stroke="none">
<path d="M1935 3353 c-42 -3 -206 -23 -240 -29 -33 -6 -118 -24 -145 -30 -14
-3 -33 -7 -42 -7 -10 -1 -18 -6 -18 -11 0 -5 -3 -7 -6 -4 -3 3 -39 -4 -79 -17
-41 -12 -77 -20 -80 -17 -3 3 -5 -1 -5 -8 0 -7 -3 -11 -6 -8 -7 7 -145 -52
-280 -120 -55 -27 -122 -57 -150 -65 -28 -8 -60 -20 -70 -25 -11 -5 -68 -31
-129 -58 -119 -52 -242 -137 -294 -203 -53 -67 -177 -341 -170 -378 1 -4 0
-10 -1 -13 -2 -5 -6 -31 -14 -105 -2 -16 -4 -32 -6 -35 -1 -3 -3 -9 -4 -15 -1
-5 -7 -28 -14 -51 -13 -45 -21 -129 -25 -279 -2 -55 -7 -109 -12 -120 -28 -68
-33 -88 -39 -141 -8 -68 13 -163 44 -206 11 -15 20 -30 20 -34 0 -4 11 -17 25
-30 14 -13 25 -27 25 -32 0 -21 136 -140 186 -162 7 -3 40 -30 74 -60 34 -30
88 -74 119 -98 59 -45 248 -142 316 -163 22 -6 47 -14 55 -17 8 -3 22 -6 30
-7 8 -2 26 -6 40 -9 22 -5 163 -18 200 -18 8 0 51 -9 95 -19 44 -9 100 -20
125 -24 25 -3 72 -10 105 -14 33 -5 152 -7 265 -5 113 3 363 6 555 8 330 2
372 4 424 21 11 3 33 8 47 11 15 3 32 6 38 7 6 1 14 5 17 10 3 4 20 9 37 10
18 1 32 5 32 10 0 4 3 6 8 5 9 -3 38 7 142 47 47 18 109 36 139 39 108 12 291
76 342 120 11 9 23 16 28 16 14 0 131 129 131 145 0 8 5 15 11 15 5 0 7 4 4
10 -3 5 -1 10 6 10 7 0 10 2 7 6 -3 3 0 24 7 47 6 23 11 77 9 120 -1 42 2 77
7 77 5 0 8 3 7 8 -1 4 5 32 14 62 20 72 46 186 53 230 7 43 -4 104 -40 235
-18 65 -29 130 -30 185 -3 90 -12 167 -21 182 -3 4 -8 20 -10 35 -3 15 -8 31
-12 37 -3 6 -7 17 -8 23 -4 23 -93 179 -118 206 -14 15 -23 27 -20 27 8 0
-131 136 -186 182 -123 101 -263 188 -395 245 -27 12 -99 42 -159 68 -60 26
-114 48 -120 50 -6 1 -19 5 -28 9 -9 4 -22 9 -30 10 -7 2 -26 9 -43 16 -16 7
-39 13 -50 15 -11 1 -20 3 -20 4 0 3 -17 7 -90 21 -33 7 -67 14 -75 17 -8 3
-31 7 -50 9 -19 1 -44 5 -56 8 -58 12 -314 25 -399 19z"/>
</g>
</svg>
